M48
INCH,TZ
T1C0.0120
T2C0.0157
T3C0.0276
T4C0.0315
T5C0.0354
T6C0.0394
T7C0.0433
T8C0.0591
T9C0.0748
T10C0.1260
%
G90
G05
T1
X7500Y-16500
X7500Y-41000
X7500Y-50250
X7750Y-50750
X8000Y-50500
X8250Y-14000
X8500Y-14250
X8500Y-56750
X8750Y-14500
X9500Y-56500
X9500Y-62000
X10000Y-32250
X10000Y-49250
X10500Y-54750
X10500Y-61500
X11500Y-54500
X11500Y-61250
X11750Y-35500
X11750Y-47000
X12000Y-36500
X12000Y-45000
X12000Y-58000
X12250Y-37500
X12250Y-40000
X12250Y-44500
X12250Y-49500
X12500Y-38000
X12500Y-39000
X12500Y-54250
X12500Y-61000
X12750Y-33000
X12750Y-44000
X13000Y-31250
X13000Y-34000
X13000Y-43000
X13000Y-58250
X13250Y-35000
X13250Y-42000
X13500Y-36000
X13500Y-41000
X13500Y-54000
X13500Y-60750
X13750Y-37000
X13750Y-40000
X14000Y-48000
X14000Y-58500
X14210Y-38300
X14210Y-39000
X14250Y-14500
X14250Y-21000
X14500Y-23750
X14500Y-49500
X14500Y-60500
X15000Y-14000
X15000Y-27500
X15000Y-58750
X15500Y-14250
X15500Y-60250
X15750Y-38000
X15750Y-40000
X16000Y-20000
X16000Y-39000
X16000Y-41000
X16000Y-59000
X16250Y-40000
X16250Y-43000
X16500Y-11500
X16500Y-24000
X16500Y-37000
X16500Y-45000
X16500Y-52250
X16500Y-60000
X16750Y-32750
X16750Y-44500
X17000Y-13500
X17000Y-20000
X17000Y-33500
X17000Y-45500
X17000Y-59250
X17200Y-46500
X17210Y-34290
X17250Y-15500
X17400Y-48000
X17420Y-35290
X17500Y-34000
X17500Y-52500
X17630Y-36200
X17630Y-47000
X17800Y-37290
X17810Y-46000
X18000Y-32000
X18000Y-59500
X18010Y-38290
X18010Y-45000
X18220Y-39300
X18220Y-44020
X18250Y-13250
X18250Y-15000
X18250Y-31750
X18500Y-52750
X18595Y-23540
X19000Y-24000
X19000Y-59750
X19250Y-30250
X19250Y-34000
X19405Y-23330
X19450Y-36200
X19500Y-18000
X19500Y-53000
X19570Y-30680
X19700Y-37290
X20000Y-60000
X20016Y-33984
X20500Y-53250
X20550Y-23120
X20595Y-30955
X21000Y-31250
X21000Y-56750
X21500Y-11000
X21500Y-53500
X21750Y-32250
X21750Y-49500
X22000Y-43500
X22000Y-56500
X22250Y-30250
X22250Y-31500
X22250Y-42500
X22500Y-22750
X22500Y-36000
X22500Y-41000
X22500Y-53750
X23000Y-13500
X23000Y-23500
X23250Y-43000
X23477Y-30477
X23500Y-18000
X23500Y-22500
X23500Y-50250
X24000Y-23300
X24250Y-31250
X24550Y-22000
X24745Y-30955
X25000Y-23000
X25250Y-30250
X25250Y-34500
X25500Y-12000
X25500Y-15000
X25500Y-22083
X25700Y-31500
X25910Y-32000
X26000Y-22750
X26450Y-21850
X26500Y-18750
X26500Y-49500
X26523Y-31727
X27000Y-22750
X27000Y-42500
X27500Y-19000
X27500Y-49000
X27750Y-42000
X27950Y-22300
X28000Y-40750
X28000Y-50000
X28300Y-39900
X28500Y-49250
X28510Y-38750
X28750Y-38000
X28960Y-36595
X28983Y-22083
X29250Y-34600
X29500Y-29500
X29500Y-37550
X29750Y-29750
X29750Y-35600
X30000Y-21900
X30000Y-32250
X30000Y-36000
X31000Y-18750
X31000Y-23750
X31250Y-13500
X31600Y-18750
X32000Y-21000
X32000Y-54750
X32500Y-29500
X32750Y-33000
X32750Y-34000
X33000Y-26000
X33000Y-39000
X33000Y-54500
X33250Y-18750
X33500Y-29750
X33750Y-18750
X34000Y-54250
X34250Y-42000
X35000Y-54000
X35250Y-40000
X35250Y-48750
X35500Y-18250
X35500Y-33500
X35750Y-18750
X35750Y-34500
X36000Y-18000
X36000Y-32500
X36000Y-49250
X36000Y-49750
X36250Y-11500
X36250Y-15250
X36250Y-17750
X36500Y-18500
X36500Y-50000
X38000Y-52250
X39000Y-52500
X40000Y-52750
X40925Y-26500
X41000Y-9750
X41000Y-53000
X41250Y-9500
X41250Y-26250
X41500Y-15000
X41500Y-26000
X42000Y-53250
X42500Y-24000
X43000Y-23000
X43000Y-53500
X44000Y-53750
X44500Y-29750
X44500Y-50000
X45000Y-50250
X46500Y-29500
X47500Y-29250
X47500Y-48750
X48000Y-20920
X48000Y-49500
X48500Y-12000
X48500Y-49250
X49000Y-50500
X49750Y-58500
X50000Y-58750
X50250Y-59000
X50500Y-59250
X50750Y-59500
X51000Y-59750
X51500Y-17250
X51500Y-40750
X52000Y-62750
X52250Y-63000
X52500Y-41250
X53500Y-54750
X53710Y-28500
X54000Y-30000
X54500Y-17000
X54500Y-21500
X54500Y-40250
X54500Y-54500
X55000Y-60000
X55500Y-54250
X55500Y-54750
X56000Y-60250
X56500Y-10000
X56500Y-54000
X57000Y-54750
X57500Y-31500
X57500Y-49750
X57750Y-30500
X57750Y-40250
X58000Y-32500
X58773Y-61227
X59000Y-41750
X59000Y-61000
X59500Y-10250
X59500Y-52250
X59500Y-60750
X60000Y-42250
X60500Y-9500
X60500Y-52500
X60500Y-58500
X60500Y-61250
X61000Y-41250
X61500Y-52750
X61500Y-58750
X61500Y-61000
X62000Y-18500
X62500Y-53000
X62500Y-59000
X62500Y-60750
X63500Y-53250
X63500Y-59250
X64500Y-53500
X64500Y-59500
X65500Y-15250
X65500Y-18500
X65500Y-53750
X65500Y-59750
X65955Y-19500
X66000Y-58250
X66500Y-19750
X66500Y-50250
X66500Y-60000
X67000Y-63750
X67250Y-60250
X67250Y-64000
X67500Y-20000
X67500Y-58500
X67500Y-64250
X67750Y-58000
X67750Y-64500
X68500Y-58500
X69500Y-49500
X70000Y-48975
X71000Y-29750
X71000Y-33500
X71200Y-10200
X71200Y-11400
X71250Y-29500
X71250Y-34500
X71250Y-49250
X71500Y-36000
X71500Y-29250
X71500Y-41250
X71750Y-41750
X71800Y-10000
X71800Y-10750
X72000Y-11378
X72000Y-40250
X72000Y-42250
X72250Y-10500
X72267Y-11165
X73000Y-13000
X74000Y-30000
X74200Y-13500
X74500Y-34000
X74500Y-33250
X74750Y-35500
X75000Y-12750
X75023Y-36477
X75600Y-13000
X75750Y-19500
X76500Y-13750
X76788Y-10588
X77000Y-10800
X77000Y-19830
X77200Y-11600
X77250Y-37000
X77500Y-29500
X77500Y-36000
X77600Y-12600
X77750Y-30500
X77750Y-34750
X77800Y-10800
X78000Y-31500
X78000Y-34000
X78010Y-13500
X78200Y-10600
X78250Y-32000
X78250Y-33500
X78500Y-31000
X78500Y-34500
X78750Y-30000
X78750Y-35500
X79000Y-29000
X79750Y-57000
X80500Y-10000
X80500Y-13000
X80500Y-48250
X80750Y-47000
X81000Y-15000
X81000Y-40250
X81750Y-56250
X82000Y-54750
X82250Y-33250
X82250Y-53750
X82500Y-10500
X82750Y-10250
X83000Y-9000
X83000Y-48750
X83250Y-49750
X83500Y-50750
X83500Y-52250
X83750Y-52750
X85250Y-53750
T2
X33750Y-15500
T3
X83356Y-21120
X83356Y-21750
X83356Y-22380
X83829Y-21435
X83829Y-22065
T4
X20016Y-33000
X21000Y-33000
X78516Y-11000
X79500Y-11000
X78516Y-26750
X79500Y-26750
X73000Y-14500
X76000Y-14500
X79000Y-22000
X79000Y-25000
X24250Y-28750
X25234Y-28750
X42500Y-16000
X43484Y-16000
X8500Y-51500
X8500Y-57500
X9500Y-51500
X9500Y-57500
X10500Y-51500
X10500Y-57500
X11500Y-51500
X11500Y-57500
X12500Y-51500
X12500Y-57500
X13500Y-51500
X13500Y-57500
X14500Y-51500
X14500Y-57500
X15500Y-51500
X15500Y-57500
X16500Y-51500
X16500Y-57500
X17500Y-51500
X17500Y-57500
X18500Y-51500
X18500Y-57500
X19500Y-51500
X19500Y-57500
X20500Y-51500
X20500Y-57500
X21500Y-51500
X21500Y-57500
X22500Y-51500
X22500Y-57500
X23500Y-51500
X23500Y-57500
X24500Y-51500
X24500Y-57500
X25500Y-51500
X25500Y-57500
X26500Y-51500
X26500Y-57500
X27500Y-51500
X27500Y-57500
X32000Y-11000
X32000Y-12000
X32000Y-13000
X32000Y-14000
X32000Y-15000
X32000Y-16000
X32000Y-17000
X35000Y-11000
X35000Y-12000
X35000Y-13000
X35000Y-14000
X35000Y-15000
X35000Y-16000
X35000Y-17000
X78500Y-15000
X79484Y-15000
X16000Y-21000
X16000Y-27000
X17000Y-21000
X17000Y-27000
X18000Y-21000
X18000Y-27000
X19000Y-21000
X19000Y-27000
X20000Y-21000
X20000Y-27000
X21000Y-21000
X21000Y-27000
X22000Y-21000
X22000Y-27000
X23000Y-21000
X23000Y-27000
X24000Y-21000
X24000Y-27000
X25000Y-21000
X25000Y-27000
X26000Y-21000
X26000Y-27000
X27000Y-21000
X27000Y-27000
X28000Y-21000
X28000Y-27000
X29000Y-21000
X29000Y-27000
X30000Y-21000
X30000Y-27000
X31000Y-21000
X31000Y-27000
X32000Y-21000
X32000Y-27000
X33000Y-21000
X33000Y-27000
X34000Y-21000
X34000Y-27000
X35000Y-21000
X35000Y-27000
X81750Y-20250
X81750Y-23250
X56750Y-24016
X56750Y-25000
X11000Y-28750
X11984Y-28750
X11250Y-9250
X14250Y-9250
X16000Y-11000
X16000Y-12000
X16000Y-13000
X16000Y-14000
X16000Y-15000
X16000Y-16000
X16000Y-17000
X19000Y-11000
X19000Y-12000
X19000Y-13000
X19000Y-14000
X19000Y-15000
X19000Y-16000
X19000Y-17000
X83750Y-46750
X84734Y-46750
X20000Y-9250
X23000Y-9250
X31016Y-33000
X32000Y-33000
X73000Y-16500
X76000Y-16500
X15000Y-28250
X15000Y-31250
X67000Y-22000
X67000Y-25000
X45516Y-16500
X46500Y-16500
X79250Y-44750
X82250Y-44750
X24000Y-11000
X24000Y-12000
X24000Y-13000
X24000Y-14000
X24000Y-15000
X24000Y-16000
X24000Y-17000
X27000Y-11000
X27000Y-12000
X27000Y-13000
X27000Y-14000
X27000Y-15000
X27000Y-16000
X27000Y-17000
X10000Y-20764
X10000Y-26764
X13000Y-20764
X13000Y-26764
X48500Y-13500
X51500Y-13500
X26000Y-9250
X26984Y-9250
X54500Y-11000
X54500Y-17000
X55500Y-11000
X55500Y-17000
X56500Y-11000
X56500Y-17000
X57500Y-11000
X57500Y-17000
X58500Y-11000
X58500Y-17000
X59500Y-11000
X59500Y-17000
X60500Y-11000
X60500Y-17000
X61500Y-11000
X61500Y-17000
X62500Y-11000
X62500Y-17000
X63500Y-11000
X63500Y-17000
X64500Y-11000
X64500Y-17000
X65500Y-11000
X65500Y-17000
X66500Y-11000
X66500Y-17000
X67500Y-11000
X67500Y-17000
X34016Y-9250
X35000Y-9250
X71000Y-22000
X71000Y-25000
X39500Y-11000
X40484Y-11000
X42500Y-11000
X42500Y-12000
X42500Y-13000
X42500Y-14000
X45500Y-11000
X45500Y-12000
X45500Y-13000
X45500Y-14000
X48500Y-11000
X51500Y-11000
X75000Y-22000
X75000Y-25000
X76500Y-28500
X76500Y-29500
X76500Y-30500
X76500Y-31500
X76500Y-32500
X76500Y-33500
X76500Y-34500
X76500Y-35500
X76500Y-36500
X76500Y-37500
X79500Y-28500
X79500Y-29500
X79500Y-30500
X79500Y-31500
X79500Y-32500
X79500Y-33500
X79500Y-34500
X79500Y-35500
X79500Y-36500
X79500Y-37500
X30000Y-51500
X30000Y-57500
X31000Y-51500
X31000Y-57500
X32000Y-51500
X32000Y-57500
X33000Y-51500
X33000Y-57500
X34000Y-51500
X34000Y-57500
X35000Y-51500
X35000Y-57500
X36000Y-51500
X36000Y-57500
X37000Y-51500
X37000Y-57500
X38000Y-51500
X38000Y-57500
X39000Y-51500
X39000Y-57500
X40000Y-51500
X40000Y-57500
X41000Y-51500
X41000Y-57500
X42000Y-51500
X42000Y-57500
X43000Y-51500
X43000Y-57500
X44000Y-51500
X44000Y-57500
X45000Y-51500
X45000Y-57500
X46000Y-51500
X46000Y-57500
X47000Y-51500
X47000Y-57500
X48000Y-51500
X48000Y-57500
X49000Y-51500
X49000Y-57500
X15000Y-35000
X15000Y-36000
X15000Y-37000
X15000Y-38000
X15000Y-39000
X15000Y-40000
X15000Y-41000
X15000Y-42000
X15000Y-43000
X15000Y-44000
X15000Y-45000
X15000Y-46000
X15000Y-47000
X15000Y-48000
X21000Y-35000
X21000Y-36000
X21000Y-37000
X21000Y-38000
X21000Y-39000
X21000Y-40000
X21000Y-41000
X21000Y-42000
X21000Y-43000
X21000Y-44000
X21000Y-45000
X21000Y-46000
X21000Y-47000
X21000Y-48000
X21500Y-14000
X21500Y-17000
X18750Y-28250
X18750Y-31250
X48016Y-59000
X49000Y-59000
X81250Y-48250
X81250Y-49250
X81250Y-50250
X81250Y-51250
X81250Y-52250
X81250Y-53250
X81250Y-54250
X81250Y-55250
X84250Y-48250
X84250Y-49250
X84250Y-50250
X84250Y-51250
X84250Y-52250
X84250Y-53250
X84250Y-54250
X84250Y-55250
X77750Y-58500
X77750Y-61500
X83750Y-58500
X83750Y-61500
X73000Y-18500
X76000Y-18500
X69516Y-59000
X70500Y-59000
X78516Y-13000
X79500Y-13000
X83750Y-44750
X84734Y-44750
X22500Y-19000
X25500Y-19000
X58500Y-19000
X58500Y-25000
X61500Y-19000
X61500Y-25000
X51500Y-51500
X51500Y-57500
X52500Y-51500
X52500Y-57500
X53500Y-51500
X53500Y-57500
X54500Y-51500
X54500Y-57500
X55500Y-51500
X55500Y-57500
X56500Y-51500
X56500Y-57500
X57500Y-51500
X57500Y-57500
X58500Y-51500
X58500Y-57500
X59500Y-51500
X59500Y-57500
X60500Y-51500
X60500Y-57500
X61500Y-51500
X61500Y-57500
X62500Y-51500
X62500Y-57500
X63500Y-51500
X63500Y-57500
X64500Y-51500
X64500Y-57500
X65500Y-51500
X65500Y-57500
X66500Y-51500
X66500Y-57500
X67500Y-51500
X67500Y-57500
X68500Y-51500
X68500Y-57500
X69500Y-51500
X69500Y-57500
X70500Y-51500
X70500Y-57500
X82398Y-31923
X82398Y-34600
X83500Y-31923
X83500Y-32750
X83500Y-33774
X83500Y-34600
X26516Y-59000
X27500Y-59000
X26000Y-35000
X26000Y-36000
X26000Y-37000
X26000Y-38000
X26000Y-39000
X26000Y-40000
X26000Y-41000
X26000Y-42000
X26000Y-43000
X26000Y-44000
X26000Y-45000
X26000Y-46000
X26000Y-47000
X26000Y-48000
X32000Y-35000
X32000Y-36000
X32000Y-37000
X32000Y-38000
X32000Y-39000
X32000Y-40000
X32000Y-41000
X32000Y-42000
X32000Y-43000
X32000Y-44000
X32000Y-45000
X32000Y-46000
X32000Y-47000
X32000Y-48000
X18016Y-9250
X19000Y-9250
X75750Y-58500
X75750Y-59484
X53000Y-16266
X53000Y-17250
T5
X72500Y-23500
X73500Y-23500
X76500Y-23500
X77500Y-23500
X38250Y-22031
X38250Y-24000
X40219Y-23016
X64500Y-23500
X65500Y-23500
X68500Y-23500
X69500Y-23500
T6
X72250Y-9500
X73250Y-9500
X64250Y-21000
X65250Y-21000
X72500Y-32500
X73500Y-32500
X23250Y-34000
X24250Y-34000
X55000Y-22750
X55000Y-23750
X77500Y-49250
X78500Y-49250
X30000Y-15000
X77500Y-52250
X78500Y-52250
X77500Y-56250
X78500Y-56250
X77500Y-55250
X78500Y-55250
X78250Y-40250
X78250Y-41250
X78250Y-42250
X79250Y-40250
X79250Y-41250
X79250Y-42250
X72500Y-29500
X73500Y-29500
X53000Y-22750
X53000Y-23750
X52000Y-22750
X52000Y-23750
X72500Y-38500
X73500Y-38500
X48000Y-61250
X49000Y-61250
X26500Y-61250
X27500Y-61250
X55500Y-65000
X56500Y-65000
X57500Y-65000
X58500Y-65000
X59500Y-65000
X60500Y-65000
X61500Y-65000
X62500Y-65000
X63500Y-65000
X64500Y-65000
X65500Y-65000
X66500Y-65000
X51000Y-22250
X51000Y-23250
X51000Y-24250
X73500Y-42500
X29000Y-14000
X30000Y-14000
X30000Y-12000
X77500Y-47250
X78500Y-47250
X77500Y-54250
X78500Y-54250
X72500Y-28500
X73500Y-28500
X78031Y-18500
X80000Y-18500
X72500Y-31500
X73500Y-31500
X20750Y-18500
X20750Y-19500
X23250Y-33000
X24250Y-33000
X29000Y-11000
X30000Y-11000
X69500Y-60250
X70500Y-60250
X12500Y-65000
X13500Y-65000
X14500Y-65000
X15500Y-65000
X16500Y-65000
X17500Y-65000
X18500Y-65000
X19500Y-65000
X20500Y-65000
X21500Y-65000
X22500Y-65000
X23500Y-65000
X50000Y-22250
X50000Y-23250
X50000Y-24250
X73500Y-41500
X29000Y-13000
X30000Y-13000
X29000Y-17000
X30000Y-17000
X72500Y-39500
X73500Y-39500
X23250Y-35000
X24250Y-35000
X72500Y-34500
X73500Y-34500
X54000Y-22750
X54000Y-23750
X21000Y-28750
X21000Y-29750
X81250Y-9500
X82250Y-9500
X72500Y-36500
X73500Y-36500
X10500Y-17000
X11500Y-17000
X12500Y-17000
X26500Y-60250
X27500Y-60250
X12500Y-62000
X13500Y-62000
X14500Y-62000
X15500Y-62000
X16500Y-62000
X17500Y-62000
X18500Y-62000
X19500Y-62000
X20500Y-62000
X21500Y-62000
X22500Y-62000
X23500Y-62000
X49000Y-22250
X49000Y-23250
X49000Y-24250
X29000Y-16000
X30000Y-16000
X12500Y-12500
X13500Y-12500
X42000Y-27500
X43000Y-27500
X44000Y-27500
X45000Y-27500
X46000Y-27500
X47000Y-27500
X48000Y-27500
X49000Y-27500
X50000Y-27500
X51000Y-27500
X52000Y-27500
X53000Y-27500
X54000Y-27500
X55000Y-27500
X56000Y-27500
X57000Y-27500
X72500Y-30500
X73500Y-30500
X77500Y-50250
X78500Y-50250
X23000Y-28750
X23000Y-29750
X29000Y-10000
X30000Y-10000
X72500Y-37500
X73500Y-37500
X54500Y-9500
X55500Y-9500
X55500Y-62000
X56500Y-62000
X57500Y-62000
X58500Y-62000
X59500Y-62000
X60500Y-62000
X61500Y-62000
X62500Y-62000
X63500Y-62000
X64500Y-62000
X65500Y-62000
X66500Y-62000
X47000Y-22250
X47000Y-23250
X47000Y-24250
X12500Y-10500
X13500Y-10500
X12500Y-11500
X13500Y-11500
X72500Y-35500
X73500Y-35500
X18000Y-18500
X18000Y-19500
X48000Y-22250
X48000Y-23250
X48000Y-24250
X33750Y-33000
X34750Y-33000
X17000Y-28750
X17000Y-29750
X69750Y-13500
X70750Y-13500
X69500Y-61250
X70500Y-61250
X69750Y-14500
X70750Y-14500
X48000Y-60250
X49000Y-60250
X34000Y-62000
X35000Y-62000
X36000Y-62000
X37000Y-62000
X38000Y-62000
X39000Y-62000
X40000Y-62000
X41000Y-62000
X42000Y-62000
X43000Y-62000
X44000Y-62000
X45000Y-62000
X46000Y-22250
X46000Y-23250
X46000Y-24250
X77500Y-51250
X78500Y-51250
X33750Y-34000
X34750Y-34000
X82750Y-13250
X82750Y-14250
X82750Y-15250
X82750Y-16250
X82750Y-17250
X82750Y-18250
X76250Y-9500
X77250Y-9500
X34000Y-65000
X35000Y-65000
X36000Y-65000
X37000Y-65000
X38000Y-65000
X39000Y-65000
X40000Y-65000
X41000Y-65000
X42000Y-65000
X43000Y-65000
X44000Y-65000
X45000Y-65000
X72500Y-33500
X73500Y-33500
X42000Y-37500
X43000Y-37500
X44000Y-37500
X45000Y-37500
X46000Y-37500
X47000Y-37500
X48000Y-37500
X49000Y-37500
X50000Y-37500
X51000Y-37500
X52000Y-37500
X53000Y-37500
X54000Y-37500
X55000Y-37500
X56000Y-37500
X57000Y-37500
X9500Y-33000
X9500Y-34000
X9500Y-35000
X9500Y-36000
X9500Y-37000
X9500Y-38000
X9500Y-39000
X9500Y-40000
X9500Y-41000
X9500Y-42000
X9500Y-43000
X9500Y-44000
X9500Y-45000
X9500Y-46000
X9500Y-47000
X9500Y-48000
X10500Y-33000
X10500Y-34000
X10500Y-35000
X10500Y-36000
X10500Y-37000
X10500Y-38000
X10500Y-39000
X10500Y-40000
X10500Y-41000
X10500Y-42000
X10500Y-43000
X10500Y-44000
X10500Y-45000
X10500Y-46000
X10500Y-47000
X10500Y-48000
X45000Y-22250
X45000Y-23250
X45000Y-24250
X30000Y-9000
X77500Y-53250
X78500Y-53250
X73500Y-40500
X77500Y-48250
X78500Y-48250
T7
X37441Y-14228
X37441Y-16000
X40000Y-14228
X40000Y-16000
T8
X83650Y-40475
X85650Y-38475
X85650Y-42475
T9
X85344Y-20313
X85344Y-23187
T10
X9500Y-30500
X84500Y-10500
X84500Y-64500
X9500Y-10500
X29250Y-64500
X9500Y-64500
X50750Y-64500
T6
G00X81500Y-27144
M15
G01X81500Y-26356
M16
G05
G00X83075Y-24900
M15
G01X82287Y-24900
M16
G05
G00X83862Y-27144
M15
G01X83862Y-26356
M16
G05
G00X84327Y-30565
M15
G01X84917Y-30565
M16
G05
G00X84327Y-35959
M15
G01X84917Y-35959
M16
G05
G00X84937Y-33656
M15
G01X84937Y-32868
M16
G05
T0
M30
